<svg id="eijfoc9ilaoh1" height="38px" width="198px" xmlns="http://www.w3.org/2000/svg" xmlns:xlink="http://www.w3.org/1999/xlink" viewBox="0 0 136.027490 29.464075" shape-rendering="geometricPrecision" text-rendering="geometricPrecision">
         <g id="eijfoc9ilaoh2" transform="matrix(1 0 0 1 -36.57230377197266 -47.94100189208984)">
           <g id="eijfoc9ilaoh3">
             <g id="eijfoc9ilaoh4">
               <g id="eijfoc9ilaoh5">
                 <path id="eijfoc9ilaoh6" d="M81.541030,67.142228Q81.541030,67.950283,81.137002,68.896863Q80.744518,69.831899,
                   79.890287,70.743847Q79.036057,71.644252,77.708537,72.209891Q76.381017,72.775530,74.614838,72.775530Q73.275775,
                   72.775530,72.179128,72.521569Q71.082481,72.267609,70.182076,71.736601Q69.293215,71.194049,68.542877,
                   70.316732Q67.873346,69.520220,67.400056,68.539009Q66.926766,67.546255,66.684349,66.426521Q66.453476,65.306787,
                   66.453476,64.048529Q66.453476,62.005302,67.042203,60.389191Q67.642473,58.773080,68.750663,57.630258Q69.858854,
                   56.475893,71.347985,55.875623Q72.837116,55.275353,74.522489,55.275353Q76.577259,55.275353,78.181827,
                   56.094953Q79.786394,56.914552,80.640625,58.126635Q81.494855,59.327175,81.494855,60.400735Q81.494855,60.989461,
                   81.079284,61.439663Q80.663712,61.889866,80.074986,61.889866Q79.416998,61.889866,79.082232,61.578187Q78.759009,
                   61.266509,78.354982,60.504628Q77.685450,59.246370,76.773501,58.623012Q75.873096,57.999655,74.545576,
                   57.999655Q72.433088,57.999655,71.174830,59.604223Q69.928116,61.208790,69.928116,64.163965Q69.928116,66.137930,
                   70.482211,67.453906Q71.036306,68.758339,72.052148,69.404783Q73.067989,70.051228,74.430140,70.051228Q75.907727,
                   70.051228,76.923569,69.323978Q77.950954,68.585184,78.470418,67.165315Q78.689748,66.495783,79.012970,
                   66.080212Q79.336192,65.653096,80.051898,65.653096Q80.663712,65.653096,81.102371,66.080212Q81.541030,66.507327,
                   81.541030,67.142228Z" fill="rgb(255,255,255)" stroke="none" stroke-width="0"/> fill="rgb(0,34,85)" stroke-width="0.554094"
                 <path id="eijfoc9ilaoh7" d="M95.362326,66.751215Q95.362326,68.071514,94.951085,69.186192Q94.539845,70.300870,93.760652,
                   71.101707Q92.981460,71.902544,91.899248,72.335429Q90.817036,72.757491,89.464271,72.757491Q88.122328,
                   72.757491,87.050938,72.324607Q85.979549,71.891722,85.189534,71.090885Q84.410341,70.279226,83.999101,
                   69.186192Q83.598682,68.082336,83.598682,66.751215Q83.598682,65.409273,84.009923,64.294594Q84.421163,
                   63.179916,85.189534,62.389901Q85.957904,61.599887,87.050938,61.177824Q88.143972,60.744939,89.464271,
                   60.744939Q90.806214,60.744939,91.899248,61.177824Q92.992282,61.610709,93.771474,62.411546Q94.550667,
                   63.212382,94.951085,64.316238Q95.362326,65.420095,95.362326,66.751215ZM92.397065,66.751215Q92.397065,
                   64.943921,91.596228,63.937464Q90.806214,62.931007,89.464271,62.931007Q88.598501,62.931007,87.938352,
                   63.385536Q87.278203,63.829243,86.921073,64.705835Q86.563943,65.582426,86.563943,66.751215Q86.563943,
                   67.909182,86.910251,68.774952Q87.267381,69.640721,87.916708,70.106072Q88.576857,70.560601,89.464271,
                   70.560601Q90.806214,70.560601,91.596228,69.554144Q92.397065,68.536865,92.397065,
                   66.751215Z" fill="rgb(255,255,255)" stroke="none" stroke-width="0"/>
                 <path id="eijfoc9ilaoh8" d="M97.678259,70.961020L97.678259,58.147631Q97.678259,57.260217,98.067855,
                   56.805688Q98.468273,56.351159,99.139245,56.351159Q99.810216,56.351159,100.221460,56.805688Q100.632700,
                   57.249395,100.632700,58.147631L100.632700,70.961020Q100.632700,71.859256,100.210630,72.313785Q99.799394,
                   72.757491,99.139245,72.757491Q98.489918,72.757491,98.078677,72.292140Q97.678259,71.826789,97.678259,
                   70.961020Z" fill="rgb(255,255,255)" stroke="none" stroke-width="0"/>
                 <path id="eijfoc9ilaoh9" d="M103.695360,70.961020L103.695360,58.147631Q103.695360,57.260217,104.084960,
                   56.805688Q104.485370,56.351159,105.156350,56.351159Q105.827320,56.351159,106.238560,56.805688Q106.649800,
                   57.249395,106.649800,58.147631L106.649800,70.961020Q106.649800,71.859256,106.227740,72.313785Q105.816500,
                   72.757491,105.156350,72.757491Q104.507020,72.757491,104.095780,72.292140Q103.695360,71.826789,103.695360,
                   70.961020Z" fill="rgb(255,255,255)" stroke="none" stroke-width="0"/>
                 <path id="eijfoc9ilaoh10" d="M117.958910,67.476297L112.179900,67.476297Q112.190700,68.482754,112.580320,
                   69.251125Q112.980740,70.019495,113.630060,70.409092Q114.290210,70.798688,115.080230,70.798688Q115.610510,
                   70.798688,116.043400,70.679645Q116.487100,70.549779,116.898340,70.290048Q117.309590,70.019495,117.655890,
                   69.716476Q118.002200,69.413457,118.554130,68.893995Q118.781390,68.699197,119.203460,68.699197Q119.657990,
                   68.699197,119.939360,68.948106Q120.220740,69.197014,120.220740,69.651543Q120.220740,70.051962,119.906890,
                   70.593068Q119.593050,71.123351,118.954550,71.621169Q118.326860,72.108164,117.363700,72.432828Q116.411350,
                   72.757491,115.166810,72.757491Q112.320590,72.757491,110.740560,71.134174Q109.160530,69.510856,109.160530,
                   66.729571Q109.160530,65.420095,109.550130,64.305416Q109.939720,63.179916,110.686450,62.379079Q111.433170,
                   61.578242,112.526210,61.156180Q113.619240,60.723295,114.950360,60.723295Q116.681900,60.723295,117.915620,
                   61.459199Q119.160170,62.184281,119.777030,63.342248Q120.393890,64.500215,120.393890,65.701470Q120.393890,
                   66.816148,119.755380,67.151634Q119.116880,67.476297,117.958910,67.476297ZM112.179900,65.798869L117.536850,
                   65.798869Q117.428630,64.283772,116.714370,63.537046Q116.010930,62.779498,114.852960,62.779498Q113.749110,
                   62.779498,113.034850,63.547868Q112.331410,64.305416,112.179900,
                   65.798869Z" fill="rgb(255,255,255)" stroke="none" stroke-width="0"/>
                 <path id="eijfoc9ilaoh11" d="M133.461600,62.909363L133.461600,71.491304Q133.461600,72.963112,133.147760,
                   74.023679Q132.833910,75.084247,132.141300,75.776863Q131.448680,76.469478,130.323180,76.804964Q129.208500,
                   77.140450,127.541900,77.140450Q126.015980,77.140450,124.814720,76.707565Q123.613470,76.285502,122.964140,
                   75.603709Q122.314810,74.932737,122.314810,74.218478Q122.314810,73.677372,122.682770,73.331064Q123.050720,
                   72.995578,123.570180,72.995578Q124.219510,72.995578,124.706500,73.569150Q124.944590,73.861348,125.193500,
                   74.153545Q125.453230,74.456564,125.756250,74.662184Q126.070090,74.878627,126.502970,74.976026Q126.935860,
                   75.084247,127.498610,75.084247Q128.645750,75.084247,129.273440,74.759584Q129.911940,74.445742,130.160850,
                   73.872170Q130.420580,73.298597,130.463870,72.638448Q130.507170,71.989121,130.528770,70.538957Q129.846980,
                   71.491304,128.948740,71.989121Q128.061330,72.486938,126.827610,72.486938Q125.344980,72.486938,124.230300,
                   71.729390Q123.126440,70.971842,122.531230,69.608255Q121.936010,68.244668,121.936010,66.459018Q121.936010,
                   65.127897,122.293140,64.056508Q122.661090,62.985118,123.332060,62.249214Q124.003030,61.513310,124.879630,
                   61.145358Q125.756220,60.766583,126.805960,60.766583Q128.061330,60.766583,128.981210,61.253579Q129.901090,
                   61.729752,130.691100,62.757853L130.691100,62.357435Q130.691100,61.589064,131.069880,61.167002Q131.448650,
                   60.744939,132.043870,60.744939Q132.898820,60.744939,133.180190,61.307689Q133.461570,61.859617,133.461570,
                   62.909363ZM124.901300,66.653816Q124.901300,68.450288,125.680490,69.370168Q126.470510,70.290048,127.715050,
                   70.290048Q128.450960,70.290048,129.100280,69.900452Q129.760430,69.500034,130.171670,68.710019Q130.582910,
                   67.909182,130.582910,66.772860Q130.582910,64.965566,129.782080,63.959109Q128.992060,62.952651,127.693410,
                   62.952651Q126.427220,62.952651,125.658850,63.915820Q124.901300,64.878989,124.901300,
                   66.653816Z" fill="rgb(255,255,255)" stroke="none" stroke-width="0"/>
                 <path id="eijfoc9ilaoh12" d="M144.132210,67.476297L138.353190,67.476297Q138.363990,68.482754,138.753610,
                   69.251125Q139.154030,70.019495,139.803360,70.409092Q140.463510,70.798688,141.253520,70.798688Q141.783810,
                   70.798688,142.216690,70.679645Q142.660400,70.549779,143.071640,70.290048Q143.482880,70.019495,143.829190,
                   69.716476Q144.175490,69.413457,144.727420,68.893995Q144.954690,68.699197,145.376750,68.699197Q145.831280,
                   68.699197,146.112650,68.948106Q146.394030,69.197014,146.394030,69.651543Q146.394030,70.051962,146.080190,
                   70.593068Q145.766350,71.123351,145.127840,71.621169Q144.500160,72.108164,143.536990,72.432828Q142.584640,
                   72.757491,141.340100,72.757491Q138.493880,72.757491,136.913850,71.134174Q135.333820,69.510856,135.333820,
                   66.729571Q135.333820,65.420095,135.723420,64.305416Q136.113020,63.179916,136.859740,62.379079Q137.606470,
                   61.578242,138.699500,61.156180Q139.792540,60.723295,141.123660,60.723295Q142.855200,60.723295,144.088920,
                   61.459199Q145.333460,62.184281,145.950320,63.342248Q146.567180,64.500215,146.567180,65.701470Q146.567180,
                   66.816148,145.928680,67.151634Q145.290170,67.476297,144.132210,67.476297ZM138.353190,65.798869L143.710140,
                   65.798869Q143.601920,64.283772,142.887660,63.537046Q142.184220,62.779498,141.026260,62.779498Q139.922400,
                   62.779498,139.208140,63.547868Q138.504700,64.305416,138.353190,
                   65.798869Z" fill="rgb(255,255,255)" stroke="none" stroke-width="0"/>
                 <path id="eijfoc9ilaoh13" d="M157.308140,67.476297L151.529130,67.476297Q151.539930,68.482754,151.929550,
                   69.251125Q152.329970,70.019495,152.979290,70.409092Q153.639440,70.798688,154.429460,70.798688Q154.959740,
                   70.798688,155.392630,70.679645Q155.836330,70.549779,156.247570,70.290048Q156.658810,70.019495,157.005120,
                   69.716476Q157.351430,69.413457,157.903360,68.893995Q158.130620,68.699197,158.552680,68.699197Q159.007210,
                   68.699197,159.288590,68.948106Q159.569960,69.197014,159.569960,69.651543Q159.569960,70.051962,159.256120,
                   70.593068Q158.942280,71.123351,158.303780,71.621169Q157.676090,72.108164,156.712920,72.432828Q155.760580,
                   72.757491,154.516030,72.757491Q151.669820,72.757491,150.089790,71.134174Q148.509760,69.510856,148.509760,
                   66.729571Q148.509760,65.420095,148.899350,64.305416Q149.288950,63.179916,150.035680,62.379079Q150.782400,
                   61.578242,151.875440,61.156180Q152.968470,60.723295,154.299590,60.723295Q156.031130,60.723295,157.264850,
                   61.459199Q158.509400,62.184281,159.126260,63.342248Q159.743120,64.500215,159.743120,65.701470Q159.743120,
                   66.816148,159.104610,67.151634Q158.466110,67.476297,157.308140,67.476297ZM151.529130,65.798869L156.886080,
                   65.798869Q156.777860,64.283772,156.063600,63.537046Q155.360160,62.779498,154.202190,62.779498Q153.098340,
                   62.779498,152.384080,63.547868Q151.680640,64.305416,151.529130,
                   65.798869Z" fill="rgb(255,255,255)" stroke="none" stroke-width="0"/>
                 <path id="eijfoc9ilaoh14" d="M169.580420,71.404727L166.972290,67.119167L165.370610,68.634264L165.370610,
                   70.982664Q165.370610,71.837611,164.916080,72.302962Q164.472380,72.757491,163.887980,72.757491Q163.206190,
                   72.757491,162.816590,72.302962Q162.427000,71.848433,162.427000,70.961020L162.427000,58.364073Q162.427000,
                   57.379260,162.805770,56.870620Q163.184540,56.351159,163.887980,56.351159Q164.569780,56.351159,164.970190,
                   56.816510Q165.370610,57.281861,165.370610,58.190919L165.370610,65.355162L168.693000,61.870440Q169.309860,
                   61.221112,169.634530,60.983026Q169.959190,60.744939,170.424540,60.744939Q170.976470,60.744939,171.344420,
                   61.102069Q171.712370,61.448377,171.712370,61.978661Q171.712370,62.627988,170.511120,63.710200L168.941910,
                   65.149542L171.972110,69.911274Q172.307590,70.441558,172.448280,70.722933Q172.599790,70.993486,172.599790,
                   71.242395Q172.599790,71.945833,172.210190,72.357073Q171.831420,72.757491,171.203740,72.757491Q170.662630,
                   72.757491,170.370430,72.465294Q170.078230,72.173097,169.580420,
                   71.404727Z" fill="rgb(255,255,255)" stroke="none" stroke-width="0"/>
                 </g>
               </g>
             <path id="eijfoc9ilaoh15" d="M45.765400,59.005823C44.525891,59.015167,43.525756,60.074147,43.525742,
               61.377254C43.525633,62.006266,43.763232,62.609557,44.186261,63.054391C44.609290,63.499225,45.183093,63.749159,
               45.781421,63.749202C46.379749,63.749158,46.953551,63.499224,47.376579,63.054390C47.799608,62.609556,48.037206,
               62.006265,48.037097,61.377254C48.037051,60.067600,47.027190,59.005915,45.781421,59.005823C45.776084,59.005803,
               45.770748,59.005803,45.765411,59.005823ZM52.644567,59.005823C51.405058,59.015167,50.404923,60.074147,50.404909,
               61.377254C50.404800,62.006266,50.642399,62.609556,51.065428,63.054390C51.488457,63.499225,52.062259,63.749158,
               52.660587,63.749202C53.258915,63.749158,53.832717,63.499224,54.255746,63.054390C54.678774,62.609556,54.916373,
               62.006266,54.916264,61.377254C54.916218,60.067599,53.906356,59.005914,52.660587,59.005823C52.655250,59.005803,
               52.649914,59.005803,52.644577,59.005823ZM41.573924,60.047101L43.814098,60.047101ZM47.846409,60.047101L50.449351,
               60.047101ZM54.803091,60.047101L57.043265,60.047101ZM43.604808,62.159117L42.306180,62.908943ZM55.006180,
               62.159117L56.304807,62.908943ZM44.512762,48.756317C41.736335,48.759205,39.487200,50.919995,39.487230,
               53.584447C39.487190,54.464024,39.737530,55.326901,40.211217,56.079902C38.551779,56.474220,37.387742,
               57.890068,37.387618,59.514318C37.387711,60.649624,37.961175,61.716030,38.929641,62.381843C37.961019,
               63.047763,37.387536,64.114396,37.387618,65.249884C37.387824,66.977598,38.701274,68.452881,40.495438,
               68.740627C39.841005,69.576851,39.487197,70.594390,39.487230,71.640193C39.487202,74.306581,41.739485,
               76.468171,44.517930,76.468323C46.345887,76.468436,48.030079,75.517034,48.917146,73.983203C49.781911,
               75.584548,51.504644,76.589807,53.384056,76.589761C56.162501,76.589609,58.414784,74.428019,58.414756,
               71.761632C58.414678,70.680309,58.036352,69.630312,57.340405,68.779902C59.282792,68.637685,60.782518,
               67.099682,60.782571,65.249884C60.782532,64.114307,60.208847,63.047657,59.240029,62.381843C60.208692,
               61.716136,60.782358,60.649713,60.782571,59.514318C60.782431,57.816462,59.512963,56.357713,57.756915,
               56.037529C58.214051,55.294446,58.455309,54.447366,58.455582,53.584447C58.455595,52.303913,57.925521,
               51.075825,56.981976,50.170367C56.038431,49.264910,54.758713,48.756258,53.424363,48.756317C51.555594,
               48.756437,49.840875,49.750606,48.971407,51.338074C48.101852,49.750447,46.386886,48.756251,44.517930,
               48.756317C44.516197,48.756316,44.514463,48.756316,44.512730,
               48.756317Z" fill="none" stroke="rgb(255,255,255)" stroke-width="1.630630" stroke-linejoin="round"/>
           </g>
         </g>
       </svg>
